ffmpeg started on 2025-09-30 at 19:56:27
Report written to "D:\Convert\FFMetrics\reports\psnr_report-6.txt"
Log level: 32
Command line:
ffmpeg -hide_banner -nostdin -i "F:\\\xc0\xed\xe8\xec\xe5\\\xce\xed\xe3\xee\xe8\xed\xe3\xe8\\!_37_\xc7\xe8\xec\xe0_2025\\JamClub\\\xc4\xee\xea\xf2\xee\xf0 \xd1\xf2\xee\xf3\xed\\\xd2\xc2-4\\JamClub_Dr_Stone_Science_Future_02_1080p_HEVC.mkv" -i "F:\\\xc0\xed\xe8\xec\xe5\\\xce\xed\xe3\xee\xe8\xed\xe3\xe8\\!_37_\xc7\xe8\xec\xe0_2025\\JamClub\\\xc4\xee\xea\xf2\xee\xf0 \xd1\xf2\xee\xf3\xed\\\xd2\xc2-4\\JamClub_Dr_Stone_Science_Future_02_1080p.mp4" -lavfi "[0:v]settb=AVTB,setpts=PTS-STARTPTS,format=pix_fmts=yuv420p10le,fps=24000/1001,scale=1920:1080:flags=bicubic:out_range=limited:out_chroma_loc=left,colorspace=format=yuv420p10:range=tv:primaries=bt709:trc=bt709:space=bt709:fast=0[main];[1:v]settb=AVTB,setpts=PTS-STARTPTS,format=pix_fmts=yuv420p,fps=24000/1001,scale=1920:1080:flags=bicubic:out_range=limited:out_chroma_loc=left,colorspace=format=yuv420p:irange=tv:iprimaries=bt709:itrc=bt709:ispace=bt709:range=tv:primaries=bt709:trc=bt709:space=bt709:fast=0[ref];[main][ref]psnr=eof_action=endall:stats_file='D\\:/Convert/FFMetrics/logs/psnr_logfile-6.txt'" -f null -
Input #0, matroska,webm, from 'F:\Аниме\Онгоинги\!_37_Зима_2025\JamClub\Доктор Стоун\ТВ-4\JamClub_Dr_Stone_Science_Future_02_1080p_HEVC.mkv':
  Metadata:
    COMPATIBLE_BRANDS: isomiso2avc1mp41
    MAJOR_BRAND     : isom
    MINOR_VERSION   : 512
    ENCODER         : Lavf61.7.100
  Duration: 00:24:24.88, start: -0.001000, bitrate: 1638 kb/s
  Stream #0:0: Video: hevc (Main 10), yuv420p10le(tv, bt709, progressive), 1920x1080 [SAR 1:1 DAR 16:9], 23.98 fps, 23.98 tbr, 1k tbn (default)
      Metadata:
        HANDLER_NAME    : VideoHandler
        VENDOR_ID       : [0][0][0][0]
        ENCODER         : Lavc61.19.100 libx265
        BPS             : 1441696
        DURATION        : 00:24:22.168708333
        NUMBER_OF_FRAMES: 35057
        NUMBER_OF_BYTES : 263500346
        _STATISTICS_WRITING_APP: mkvpropedit v94.0 ('Initiate') 64-bit
        _STATISTICS_WRITING_DATE_UTC: 2025-09-30 15:59:55
        _STATISTICS_TAGS: BPS DURATION NUMBER_OF_FRAMES NUMBER_OF_BYTES
  Stream #0:1(eng): Audio: aac (LC), 48000 Hz, stereo, fltp (default)
      Metadata:
        HANDLER_NAME    : SoundHandler
        VENDOR_ID       : [0][0][0][0]
        ENCODER         : Lavc61.19.100 aac
        BPS             : 195307
        DURATION        : 00:24:24.835000000
        NUMBER_OF_FRAMES: 68665
        NUMBER_OF_BYTES : 35761599
        _STATISTICS_WRITING_APP: mkvpropedit v94.0 ('Initiate') 64-bit
        _STATISTICS_WRITING_DATE_UTC: 2025-09-30 15:59:55
        _STATISTICS_TAGS: BPS DURATION NUMBER_OF_FRAMES NUMBER_OF_BYTES
Input #1, mov,mp4,m4a,3gp,3g2,mj2, from 'F:\Аниме\Онгоинги\!_37_Зима_2025\JamClub\Доктор Стоун\ТВ-4\JamClub_Dr_Stone_Science_Future_02_1080p.mp4':
  Metadata:
    major_brand     : isom
    minor_version   : 512
    compatible_brands: isomiso2avc1mp41
    encoder         : Lavf60.16.100
  Duration: 00:24:24.86, start: 0.000000, bitrate: 4591 kb/s
  Stream #1:0[0x1](und): Video: h264 (High) (avc1 / 0x31637661), yuv420p(progressive), 1920x1080 [SAR 1:1 DAR 16:9], 4401 kb/s, 23.98 fps, 23.98 tbr, 90k tbn (default)
      Metadata:
        handler_name    : VideoHandler
        vendor_id       : [0][0][0][0]
  Stream #1:1[0x2](eng): Audio: aac (LC) (mp4a / 0x6134706D), 48000 Hz, stereo, fltp, 191 kb/s (default)
      Metadata:
        handler_name    : SoundHandler
        vendor_id       : [0][0][0][0]
Stream mapping:
  Stream #0:0 (hevc) -> settb:default
  Stream #1:0 (h264) -> settb:default
  psnr:default -> Stream #0:0 (wrapped_avframe)
  Stream #0:1 -> #0:1 (aac (native) -> pcm_s16le (native))
Output #0, null, to 'pipe:':
  Metadata:
    COMPATIBLE_BRANDS: isomiso2avc1mp41
    MAJOR_BRAND     : isom
    MINOR_VERSION   : 512
    encoder         : Lavf61.7.100
  Stream #0:0: Video: wrapped_avframe, yuv420p10le(tv, bt709, progressive), 1920x1080 [SAR 1:1 DAR 16:9], q=2-31, 200 kb/s, 23.98 fps, 23.98 tbn
      Metadata:
        encoder         : Lavc61.19.100 wrapped_avframe
  Stream #0:1(eng): Audio: pcm_s16le, 48000 Hz, stereo, s16, 1536 kb/s (default)
      Metadata:
        HANDLER_NAME    : SoundHandler
        VENDOR_ID       : [0][0][0][0]
        _STATISTICS_TAGS: BPS DURATION NUMBER_OF_FRAMES NUMBER_OF_BYTES
        BPS             : 195307
        DURATION        : 00:24:24.835000000
        NUMBER_OF_FRAMES: 68665
        NUMBER_OF_BYTES : 35761599
        _STATISTICS_WRITING_APP: mkvpropedit v94.0 ('Initiate') 64-bit
        _STATISTICS_WRITING_DATE_UTC: 2025-09-30 15:59:55
        encoder         : Lavc61.19.100 pcm_s16le
frame=  101 fps=0.0 q=-0.0 size=N/A time=00:00:04.21 bitrate=N/A speed=8.27x    frame=  246 fps=237 q=-0.0 size=N/A time=00:00:10.26 bitrate=N/A speed=9.91x    frame=  402 fps=260 q=-0.0 size=N/A time=00:00:16.76 bitrate=N/A speed=10.8x    frame=  583 fps=283 q=-0.0 size=N/A time=00:00:24.31 bitrate=N/A speed=11.8x    frame=  771 fps=300 q=-0.0 size=N/A time=00:00:32.15 bitrate=N/A speed=12.5x    frame=  976 fps=315 q=-0.0 size=N/A time=00:00:40.70 bitrate=N/A speed=13.1x    frame= 1155 fps=320 q=-0.0 size=N/A time=00:00:48.17 bitrate=N/A speed=13.3x    frame= 1336 fps=324 q=-0.0 size=N/A time=00:00:55.72 bitrate=N/A speed=13.5x    frame= 1513 fps=326 q=-0.0 size=N/A time=00:01:03.10 bitrate=N/A speed=13.6x    frame= 1691 fps=329 q=-0.0 size=N/A time=00:01:10.52 bitrate=N/A speed=13.7x    frame= 1878 fps=331 q=-0.0 size=N/A time=00:01:18.32 bitrate=N/A speed=13.8x    frame= 2062 fps=333 q=-0.0 size=N/A time=00:01:26.00 bitrate=N/A speed=13.9x    frame= 2252 fps=336 q=-0.0 size=N/A time=00:01:33.92 bitrate=N/A speed=  14x    frame= 2452 fps=339 q=-0.0 size=N/A time=00:01:42.26 bitrate=N/A speed=14.2x    frame= 2640 fps=341 q=-0.0 size=N/A time=00:01:50.11 bitrate=N/A speed=14.2x    frame= 2837 fps=343 q=-0.0 size=N/A time=00:01:58.32 bitrate=N/A speed=14.3x    frame= 3032 fps=346 q=-0.0 size=N/A time=00:02:06.45 bitrate=N/A speed=14.4x    frame= 3228 fps=348 q=-0.0 size=N/A time=00:02:14.63 bitrate=N/A speed=14.5x    frame= 3431 fps=350 q=-0.0 size=N/A time=00:02:23.10 bitrate=N/A speed=14.6x    frame= 3626 fps=351 q=-0.0 size=N/A time=00:02:31.23 bitrate=N/A speed=14.6x    frame= 3773 fps=348 q=-0.0 size=N/A time=00:02:37.36 bitrate=N/A speed=14.5x    frame= 3900 fps=344 q=-0.0 size=N/A time=00:02:42.66 bitrate=N/A speed=14.3x    frame= 4036 fps=340 q=-0.0 size=N/A time=00:02:48.33 bitrate=N/A speed=14.2x    frame= 4164 fps=336 q=-0.0 size=N/A time=00:02:53.67 bitrate=N/A speed=  14x    frame= 4298 fps=333 q=-0.0 size=N/A time=00:02:59.26 bitrate=N/A speed=13.9x    frame= 4435 fps=331 q=-0.0 size=N/A time=00:03:04.97 bitrate=N/A speed=13.8x    frame= 4602 fps=330 q=-0.0 size=N/A time=00:03:11.94 bitrate=N/A speed=13.8x    frame= 4726 fps=327 q=-0.0 size=N/A time=00:03:17.11 bitrate=N/A speed=13.6x    frame= 4853 fps=324 q=-0.0 size=N/A time=00:03:22.41 bitrate=N/A speed=13.5x    frame= 4980 fps=322 q=-0.0 size=N/A time=00:03:27.70 bitrate=N/A speed=13.4x    frame= 5114 fps=320 q=-0.0 size=N/A time=00:03:33.29 bitrate=N/A speed=13.3x    frame= 5221 fps=316 q=-0.0 size=N/A time=00:03:37.75 bitrate=N/A speed=13.2x    frame= 5353 fps=314 q=-0.0 size=N/A time=00:03:43.26 bitrate=N/A speed=13.1x    frame= 5535 fps=316 q=-0.0 size=N/A time=00:03:50.85 bitrate=N/A speed=13.2x    frame= 5659 fps=313 q=-0.0 size=N/A time=00:03:56.02 bitrate=N/A speed=13.1x    frame= 5829 fps=314 q=-0.0 size=N/A time=00:04:03.11 bitrate=N/A speed=13.1x    frame= 6017 fps=315 q=-0.0 size=N/A time=00:04:10.95 bitrate=N/A speed=13.1x    frame= 6201 fps=316 q=-0.0 size=N/A time=00:04:18.63 bitrate=N/A speed=13.2x    frame= 6394 fps=318 q=-0.0 size=N/A time=00:04:26.68 bitrate=N/A speed=13.2x    frame= 6595 fps=320 q=-0.0 size=N/A time=00:04:35.06 bitrate=N/A speed=13.3x    frame= 6788 fps=321 q=-0.0 size=N/A time=00:04:43.11 bitrate=N/A speed=13.4x    frame= 6987 fps=323 q=-0.0 size=N/A time=00:04:51.41 bitrate=N/A speed=13.5x    frame= 7199 fps=324 q=-0.0 size=N/A time=00:05:00.25 bitrate=N/A speed=13.5x    frame= 7376 fps=325 q=-0.0 size=N/A time=00:05:07.64 bitrate=N/A speed=13.6x    frame= 7566 fps=326 q=-0.0 size=N/A time=00:05:15.56 bitrate=N/A speed=13.6x    frame= 7764 fps=327 q=-0.0 size=N/A time=00:05:23.82 bitrate=N/A speed=13.6x    frame= 7965 fps=328 q=-0.0 size=N/A time=00:05:32.20 bitrate=N/A speed=13.7x    frame= 8156 fps=329 q=-0.0 size=N/A time=00:05:40.17 bitrate=N/A speed=13.7x    frame= 8357 fps=331 q=-0.0 size=N/A time=00:05:48.55 bitrate=N/A speed=13.8x    frame= 8564 fps=332 q=-0.0 size=N/A time=00:05:57.19 bitrate=N/A speed=13.8x    frame= 8758 fps=333 q=-0.0 size=N/A time=00:06:05.28 bitrate=N/A speed=13.9x    frame= 8958 fps=334 q=-0.0 size=N/A time=00:06:13.62 bitrate=N/A speed=13.9x    frame= 9164 fps=335 q=-0.0 size=N/A time=00:06:22.21 bitrate=N/A speed=  14x    frame= 9369 fps=336 q=-0.0 size=N/A time=00:06:30.76 bitrate=N/A speed=  14x    frame= 9559 fps=337 q=-0.0 size=N/A time=00:06:38.68 bitrate=N/A speed=14.1x    frame= 9737 fps=337 q=-0.0 size=N/A time=00:06:46.11 bitrate=N/A speed=14.1x    frame= 9933 fps=338 q=-0.0 size=N/A time=00:06:54.28 bitrate=N/A speed=14.1x    frame=10133 fps=339 q=-0.0 size=N/A time=00:07:02.63 bitrate=N/A speed=14.1x    frame=10334 fps=339 q=-0.0 size=N/A time=00:07:11.01 bitrate=N/A speed=14.2x    frame=10526 fps=340 q=-0.0 size=N/A time=00:07:19.02 bitrate=N/A speed=14.2x    frame=10728 fps=341 q=-0.0 size=N/A time=00:07:27.44 bitrate=N/A speed=14.2x    frame=10932 fps=342 q=-0.0 size=N/A time=00:07:35.95 bitrate=N/A speed=14.3x    frame=11137 fps=342 q=-0.0 size=N/A time=00:07:44.50 bitrate=N/A speed=14.3x    frame=11327 fps=343 q=-0.0 size=N/A time=00:07:52.43 bitrate=N/A speed=14.3x    frame=11526 fps=344 q=-0.0 size=N/A time=00:08:00.73 bitrate=N/A speed=14.3x    frame=11704 fps=344 q=-0.0 size=N/A time=00:08:08.15 bitrate=N/A speed=14.3x    frame=11895 fps=344 q=-0.0 size=N/A time=00:08:16.12 bitrate=N/A speed=14.3x    frame=12086 fps=344 q=-0.0 size=N/A time=00:08:24.08 bitrate=N/A speed=14.4x    frame=12283 fps=345 q=-0.0 size=N/A time=00:08:32.30 bitrate=N/A speed=14.4x    frame=12481 fps=345 q=-0.0 size=N/A time=00:08:40.56 bitrate=N/A speed=14.4x    frame=12663 fps=346 q=-0.0 size=N/A time=00:08:48.15 bitrate=N/A speed=14.4x    frame=12842 fps=346 q=-0.0 size=N/A time=00:08:55.61 bitrate=N/A speed=14.4x    frame=12993 fps=345 q=-0.0 size=N/A time=00:09:01.91 bitrate=N/A speed=14.4x    frame=13201 fps=346 q=-0.0 size=N/A time=00:09:10.59 bitrate=N/A speed=14.4x    frame=13396 fps=346 q=-0.0 size=N/A time=00:09:18.72 bitrate=N/A speed=14.4x    frame=13570 fps=346 q=-0.0 size=N/A time=00:09:25.98 bitrate=N/A speed=14.4x    frame=13755 fps=346 q=-0.0 size=N/A time=00:09:33.69 bitrate=N/A speed=14.4x    frame=13907 fps=345 q=-0.0 size=N/A time=00:09:40.03 bitrate=N/A speed=14.4x    frame=14086 fps=346 q=-0.0 size=N/A time=00:09:47.50 bitrate=N/A speed=14.4x    frame=14233 fps=345 q=-0.0 size=N/A time=00:09:53.63 bitrate=N/A speed=14.4x    frame=14390 fps=344 q=-0.0 size=N/A time=00:10:00.18 bitrate=N/A speed=14.4x    frame=14585 fps=345 q=-0.0 size=N/A time=00:10:08.31 bitrate=N/A speed=14.4x    frame=14766 fps=345 q=-0.0 size=N/A time=00:10:15.86 bitrate=N/A speed=14.4x    frame=14925 fps=344 q=-0.0 size=N/A time=00:10:22.49 bitrate=N/A speed=14.4x    frame=15109 fps=345 q=-0.0 size=N/A time=00:10:30.17 bitrate=N/A speed=14.4x    frame=15311 fps=345 q=-0.0 size=N/A time=00:10:38.59 bitrate=N/A speed=14.4x    frame=15503 fps=345 q=-0.0 size=N/A time=00:10:46.60 bitrate=N/A speed=14.4x    frame=15708 fps=346 q=-0.0 size=N/A time=00:10:55.15 bitrate=N/A speed=14.4x    frame=15868 fps=346 q=-0.0 size=N/A time=00:11:01.82 bitrate=N/A speed=14.4x    frame=16028 fps=345 q=-0.0 size=N/A time=00:11:08.50 bitrate=N/A speed=14.4x    frame=16216 fps=345 q=-0.0 size=N/A time=00:11:16.34 bitrate=N/A speed=14.4x    frame=16410 fps=346 q=-0.0 size=N/A time=00:11:24.43 bitrate=N/A speed=14.4x    frame=16598 fps=346 q=-0.0 size=N/A time=00:11:32.27 bitrate=N/A speed=14.4x    frame=16795 fps=346 q=-0.0 size=N/A time=00:11:40.49 bitrate=N/A speed=14.4x    frame=16988 fps=346 q=-0.0 size=N/A time=00:11:48.54 bitrate=N/A speed=14.5x    frame=17177 fps=347 q=-0.0 size=N/A time=00:11:56.42 bitrate=N/A speed=14.5x    frame=17372 fps=347 q=-0.0 size=N/A time=00:12:04.55 bitrate=N/A speed=14.5x    frame=17571 fps=347 q=-0.0 size=N/A time=00:12:12.85 bitrate=N/A speed=14.5x    frame=17765 fps=348 q=-0.0 size=N/A time=00:12:20.94 bitrate=N/A speed=14.5x    frame=17944 fps=348 q=-0.0 size=N/A time=00:12:28.41 bitrate=N/A speed=14.5x    frame=18139 fps=348 q=-0.0 size=N/A time=00:12:36.54 bitrate=N/A speed=14.5x    frame=18319 fps=348 q=-0.0 size=N/A time=00:12:44.05 bitrate=N/A speed=14.5x    frame=18518 fps=348 q=-0.0 size=N/A time=00:12:52.35 bitrate=N/A speed=14.5x    frame=18697 fps=348 q=-0.0 size=N/A time=00:12:59.82 bitrate=N/A speed=14.5x    frame=18890 fps=349 q=-0.0 size=N/A time=00:13:07.87 bitrate=N/A speed=14.5x    frame=19093 fps=349 q=-0.0 size=N/A time=00:13:16.33 bitrate=N/A speed=14.6x    frame=19265 fps=349 q=-0.0 size=N/A time=00:13:23.51 bitrate=N/A speed=14.6x    frame=19436 fps=349 q=-0.0 size=N/A time=00:13:30.64 bitrate=N/A speed=14.5x    frame=19625 fps=349 q=-0.0 size=N/A time=00:13:38.52 bitrate=N/A speed=14.6x    frame=19821 fps=349 q=-0.0 size=N/A time=00:13:46.70 bitrate=N/A speed=14.6x    frame=20014 fps=349 q=-0.0 size=N/A time=00:13:54.75 bitrate=N/A speed=14.6x    frame=20211 fps=350 q=-0.0 size=N/A time=00:14:02.96 bitrate=N/A speed=14.6x    frame=20393 fps=350 q=-0.0 size=N/A time=00:14:10.55 bitrate=N/A speed=14.6x    frame=20592 fps=350 q=-0.0 size=N/A time=00:14:18.85 bitrate=N/A speed=14.6x    frame=20794 fps=350 q=-0.0 size=N/A time=00:14:27.28 bitrate=N/A speed=14.6x    frame=20978 fps=350 q=-0.0 size=N/A time=00:14:34.95 bitrate=N/A speed=14.6x    frame=21162 fps=350 q=-0.0 size=N/A time=00:14:42.63 bitrate=N/A speed=14.6x    frame=21362 fps=351 q=-0.0 size=N/A time=00:14:50.97 bitrate=N/A speed=14.6x    frame=21533 fps=351 q=-0.0 size=N/A time=00:14:58.10 bitrate=N/A speed=14.6x    frame=21726 fps=351 q=-0.0 size=N/A time=00:15:06.15 bitrate=N/A speed=14.6x    frame=21914 fps=351 q=-0.0 size=N/A time=00:15:13.99 bitrate=N/A speed=14.6x    frame=22106 fps=351 q=-0.0 size=N/A time=00:15:22.00 bitrate=N/A speed=14.6x    frame=22286 fps=351 q=-0.0 size=N/A time=00:15:29.51 bitrate=N/A speed=14.6x    frame=22497 fps=352 q=-0.0 size=N/A time=00:15:38.31 bitrate=N/A speed=14.7x    frame=22701 fps=352 q=-0.0 size=N/A time=00:15:46.82 bitrate=N/A speed=14.7x    frame=22906 fps=352 q=-0.0 size=N/A time=00:15:55.37 bitrate=N/A speed=14.7x    frame=23107 fps=353 q=-0.0 size=N/A time=00:16:03.75 bitrate=N/A speed=14.7x    frame=23300 fps=353 q=-0.0 size=N/A time=00:16:11.80 bitrate=N/A speed=14.7x    frame=23498 fps=353 q=-0.0 size=N/A time=00:16:20.06 bitrate=N/A speed=14.7x    frame=23694 fps=353 q=-0.0 size=N/A time=00:16:28.23 bitrate=N/A speed=14.7x    frame=23894 fps=353 q=-0.0 size=N/A time=00:16:36.57 bitrate=N/A speed=14.7x    frame=24078 fps=353 q=-0.0 size=N/A time=00:16:44.25 bitrate=N/A speed=14.7x    frame=24254 fps=353 q=-0.0 size=N/A time=00:16:51.59 bitrate=N/A speed=14.7x    frame=24443 fps=353 q=-0.0 size=N/A time=00:16:59.47 bitrate=N/A speed=14.7x    frame=24634 fps=354 q=-0.0 size=N/A time=00:17:07.44 bitrate=N/A speed=14.7x    frame=24832 fps=354 q=-0.0 size=N/A time=00:17:15.70 bitrate=N/A speed=14.8x    frame=25038 fps=354 q=-0.0 size=N/A time=00:17:24.29 bitrate=N/A speed=14.8x    frame=25236 fps=354 q=-0.0 size=N/A time=00:17:32.55 bitrate=N/A speed=14.8x    frame=25423 fps=354 q=-0.0 size=N/A time=00:17:40.35 bitrate=N/A speed=14.8x    frame=25598 fps=354 q=-0.0 size=N/A time=00:17:47.64 bitrate=N/A speed=14.8x    frame=25786 fps=354 q=-0.0 size=N/A time=00:17:55.49 bitrate=N/A speed=14.8x    frame=25956 fps=354 q=-0.0 size=N/A time=00:18:02.58 bitrate=N/A speed=14.8x    frame=26124 fps=354 q=-0.0 size=N/A time=00:18:09.58 bitrate=N/A speed=14.8x    frame=26328 fps=354 q=-0.0 size=N/A time=00:18:18.09 bitrate=N/A speed=14.8x    frame=26495 fps=354 q=-0.0 size=N/A time=00:18:25.06 bitrate=N/A speed=14.8x    frame=26669 fps=354 q=-0.0 size=N/A time=00:18:32.31 bitrate=N/A speed=14.8x    frame=26833 fps=354 q=-0.0 size=N/A time=00:18:39.15 bitrate=N/A speed=14.8x    frame=27022 fps=354 q=-0.0 size=N/A time=00:18:47.04 bitrate=N/A speed=14.8x    frame=27215 fps=354 q=-0.0 size=N/A time=00:18:55.09 bitrate=N/A speed=14.8x    frame=27413 fps=354 q=-0.0 size=N/A time=00:19:03.35 bitrate=N/A speed=14.8x    frame=27608 fps=354 q=-0.0 size=N/A time=00:19:11.48 bitrate=N/A speed=14.8x    frame=27808 fps=354 q=-0.0 size=N/A time=00:19:19.82 bitrate=N/A speed=14.8x    frame=28001 fps=355 q=-0.0 size=N/A time=00:19:27.87 bitrate=N/A speed=14.8x    frame=28198 fps=355 q=-0.0 size=N/A time=00:19:36.09 bitrate=N/A speed=14.8x    frame=28401 fps=355 q=-0.0 size=N/A time=00:19:44.60 bitrate=N/A speed=14.8x    frame=28604 fps=355 q=-0.0 size=N/A time=00:19:53.02 bitrate=N/A speed=14.8x    frame=28776 fps=355 q=-0.0 size=N/A time=00:20:00.19 bitrate=N/A speed=14.8x    frame=28969 fps=355 q=-0.0 size=N/A time=00:20:08.24 bitrate=N/A speed=14.8x    frame=29166 fps=355 q=-0.0 size=N/A time=00:20:16.46 bitrate=N/A speed=14.8x    frame=29363 fps=356 q=-0.0 size=N/A time=00:20:24.68 bitrate=N/A speed=14.8x    frame=29553 fps=356 q=-0.0 size=N/A time=00:20:32.60 bitrate=N/A speed=14.8x    frame=29754 fps=356 q=-0.0 size=N/A time=00:20:40.98 bitrate=N/A speed=14.8x    frame=29957 fps=356 q=-0.0 size=N/A time=00:20:49.45 bitrate=N/A speed=14.9x    frame=30165 fps=356 q=-0.0 size=N/A time=00:20:58.13 bitrate=N/A speed=14.9x    frame=30348 fps=356 q=-0.0 size=N/A time=00:21:05.76 bitrate=N/A speed=14.9x    frame=30523 fps=356 q=-0.0 size=N/A time=00:21:13.06 bitrate=N/A speed=14.9x    frame=30714 fps=356 q=-0.0 size=N/A time=00:21:21.02 bitrate=N/A speed=14.9x    frame=30915 fps=356 q=-0.0 size=N/A time=00:21:29.41 bitrate=N/A speed=14.9x    frame=31101 fps=357 q=-0.0 size=N/A time=00:21:37.17 bitrate=N/A speed=14.9x    frame=31271 fps=356 q=-0.0 size=N/A time=00:21:44.26 bitrate=N/A speed=14.9x    frame=31460 fps=356 q=-0.0 size=N/A time=00:21:52.14 bitrate=N/A speed=14.9x    frame=31645 fps=356 q=-0.0 size=N/A time=00:21:59.86 bitrate=N/A speed=14.9x    frame=31792 fps=356 q=-0.0 size=N/A time=00:22:05.99 bitrate=N/A speed=14.8x    frame=31949 fps=356 q=-0.0 size=N/A time=00:22:12.53 bitrate=N/A speed=14.8x    frame=32127 fps=356 q=-0.0 size=N/A time=00:22:19.96 bitrate=N/A speed=14.8x    frame=32318 fps=356 q=-0.0 size=N/A time=00:22:27.92 bitrate=N/A speed=14.8x    frame=32470 fps=355 q=-0.0 size=N/A time=00:22:34.26 bitrate=N/A speed=14.8x    frame=32650 fps=355 q=-0.0 size=N/A time=00:22:41.77 bitrate=N/A speed=14.8x    frame=32850 fps=355 q=-0.0 size=N/A time=00:22:50.11 bitrate=N/A speed=14.8x    frame=33034 fps=356 q=-0.0 size=N/A time=00:22:57.79 bitrate=N/A speed=14.8x    frame=33226 fps=356 q=-0.0 size=N/A time=00:23:05.80 bitrate=N/A speed=14.8x    frame=33402 fps=356 q=-0.0 size=N/A time=00:23:13.14 bitrate=N/A speed=14.8x    frame=33575 fps=355 q=-0.0 size=N/A time=00:23:20.35 bitrate=N/A speed=14.8x    frame=33750 fps=355 q=-0.0 size=N/A time=00:23:27.65 bitrate=N/A speed=14.8x    frame=33928 fps=355 q=-0.0 size=N/A time=00:23:35.08 bitrate=N/A speed=14.8x    frame=34106 fps=355 q=-0.0 size=N/A time=00:23:42.50 bitrate=N/A speed=14.8x    frame=34305 fps=355 q=-0.0 size=N/A time=00:23:50.80 bitrate=N/A speed=14.8x    frame=34446 fps=355 q=-0.0 size=N/A time=00:23:56.68 bitrate=N/A speed=14.8x    frame=34589 fps=355 q=-0.0 size=N/A time=00:24:02.64 bitrate=N/A speed=14.8x    frame=34777 fps=355 q=-0.0 size=N/A time=00:24:10.49 bitrate=N/A speed=14.8x    frame=34955 fps=355 q=-0.0 size=N/A time=00:24:17.91 bitrate=N/A speed=14.8x    [Parsed_psnr_12 @ 0000017ae3d16300] PSNR y:47.466178 u:49.765567 v:49.819077 average:48.112246 min:37.006527 max:inf
[out#0/null @ 0000017ad7d24b40] video:15064KiB audio:274660KiB subtitle:0KiB other streams:0KiB global headers:0KiB muxing overhead: unknown
frame=35057 fps=355 q=-0.0 Lsize=N/A time=00:24:22.16 bitrate=N/A speed=14.8x    
